<mxfile host="app.diagrams.net" modified="2024-02-03T05:52:14.125Z" agent="Mozilla/5.0 (X11; Linux x86_64) AppleWebKit/537.36 (KHTML, like Gecko) Chrome/121.0.0.0 Safari/537.36" version="23.1.1" etag="tOIaPV2D3xNc4Dh7ttIu" type="github">
  <diagram name="페이지-1" id="XFvtvPk8f8HRTkpkv3N2">
    <mxGraphModel>
      <root>
        <mxCell id="0" />
        <mxCell id="1" parent="0" />
      </root>
    </mxGraphModel>
  </diagram>
</mxfile>
